PERFORMER "Pete Tong, Sasha & Paul Oakenfold"
TITLE "Essential Mix (2008-08-23) [TMB]"
FILE "2008-08-23 - Essential MIx 796 - Creamfields 1998 (Mp3).mp3" MP3
  TRACK 01 AUDIO
    PERFORMER "Essential Mix"
    TITLE "Intro"
    INDEX 01 00:00:00
  TRACK 02 AUDIO
    PERFORMER "David Morales pres. The Face"
    TITLE "Needing U"
    INDEX 01 01:38:00
  TRACK 03 AUDIO
    PERFORMER "Stardust"
    TITLE "Music Sounds Better With You"
    INDEX 01 08:15:74
  TRACK 04 AUDIO
    PERFORMER "Richard F"
    TITLE "Good Love"
    INDEX 01 13:55:00
  TRACK 05 AUDIO
    PERFORMER "Pianoheadz"
    TITLE "Distorition"
    INDEX 01 17:28:00
  TRACK 06 AUDIO
    PERFORMER "BLD"
    TITLE "ID"
    INDEX 01 24:45:00
  TRACK 07 AUDIO
    PERFORMER "El Magnifico"
    TITLE "Tha Nu Style"
    INDEX 01 31:12:00
  TRACK 08 AUDIO
    PERFORMER "Jungle Brothers"
    TITLE "I'll House U"
    INDEX 01 37:25:74
  TRACK 09 AUDIO
    PERFORMER "Energy 52"
    TITLE "Café Del Mar '98"
    INDEX 01 38:41:72
  TRACK 10 AUDIO
    PERFORMER "Morgan King"
    TITLE "I'm Free"
    INDEX 01 48:49:64
  TRACK 11 AUDIO
    PERFORMER "ID"
    TITLE "ID"
    INDEX 01 56:06:00
  TRACK 12 AUDIO
    PERFORMER "Pablo Gargano"
    TITLE "Chemistry Of Soul"
    INDEX 01 66:18:00
  TRACK 13 AUDIO
    PERFORMER "Elevate"
    TITLE "Next Life"
    INDEX 01 71:08:69
  TRACK 14 AUDIO
    PERFORMER "Dollshead"
    TITLE "It's Ove It's Under"
    INDEX 01 77:44:00
  TRACK 15 AUDIO
    PERFORMER "Madonna"
    TITLE "Ray Of Light"
    INDEX 01 83:40:74
  TRACK 16 AUDIO
    PERFORMER "Westbam vs. Red Jerry"
    TITLE "Wizards Of The Sonic"
    INDEX 01 91:29:00
  TRACK 17 AUDIO
    PERFORMER "Transa"
    TITLE "Enervate"
    INDEX 01 95:17:00
  TRACK 18 AUDIO
    PERFORMER "Man With No Name"
    TITLE "Own The World"
    INDEX 01 102:30:34
  TRACK 19 AUDIO
    PERFORMER "Three Drives (On A Vinyl)"
    TITLE "Greece 2000"
    INDEX 01 109:21:22
  TRACK 20 AUDIO
    PERFORMER "Shrink"
    TITLE "Nervous Breakdown"
    INDEX 01 115:51:00